<svg width="150" height="150" viewBox="0 0 150 150" fill="none" xmlns="http://www.w3.org/2000/svg">
<g clip-path="url(#clip0)">
<path d="M75 149.999C116.308 149.999 150 116.308 150 75.0005C150 33.6919 116.309 0.000976562 75 0.000976562C33.6911 0.000976562 0 33.6919 0 75.0002C0 116.308 33.6911 149.999 75 149.999Z" fill="#FF965D"/>
<path d="M49.9541 95.1019C43.6998 79.3233 30.5623 65.0435 47.0939 36.2797C53.9025 24.4333 64.3026 16.6204 75.0463 19.2656C85.7901 16.6207 96.1902 24.4336 102.999 36.2797C119.53 65.0435 106.393 79.3233 100.138 95.1019L75.0472 95.164L49.955 95.1019H49.9541Z" fill="#1F0951"/>
<path fill-rule="evenodd" clip-rule="evenodd" d="M120.74 134.37C108.066 144.163 92.1922 149.999 74.9996 149.999C57.8064 149.999 41.9328 144.163 29.2588 134.37C29.7431 132.286 30.2036 130.204 30.6271 128.29C31.5891 123.941 32.3601 120.456 32.7858 119.768C38.138 111.127 44.782 108.054 50.6226 105.352C57.921 101.976 63.965 99.1807 64.6667 86.8252C64.6667 86.8252 70.2264 91.0841 74.7888 91.0433C79.3509 91.0026 85.3257 86.5439 85.3257 86.5439C86.0303 98.9325 92.0938 101.797 99.4101 105.254C105.241 108.009 111.869 111.14 117.212 119.768C117.638 120.455 118.408 123.937 119.369 128.282C119.793 130.199 120.255 132.283 120.74 134.37Z" fill="#FFD7A3"/>
<path d="M85.6494 89.6878C85.4997 88.7119 85.3895 87.6684 85.3259 86.5439C85.3259 86.5439 79.3511 91.0026 74.789 91.0433C70.2266 91.0841 64.6669 86.8252 64.6669 86.8252C64.6024 87.9701 64.4894 89.0292 64.335 90.0179C64.4519 90.1102 64.5679 90.204 64.6868 90.2954L64.6854 90.3115C65.0366 90.6174 70.3772 95.2096 74.7881 95.1633C79.1991 95.2093 84.539 90.6165 84.8909 90.3115L84.89 90.2954C85.149 90.097 85.4003 89.8928 85.6485 89.6884L85.6494 89.6878Z" fill="#F0C290"/>
<path d="M64.6857 86.8398C65.037 87.105 70.3775 91.0832 74.7885 91.0433C79.1994 91.0832 84.5393 87.1044 84.8912 86.8398C91.5583 82.953 97.0289 71.4933 95.794 59.0736C94.7827 48.9 83.777 63.8173 76.1118 42.8262C65.2629 65.5522 54.9586 52.1091 53.7838 60.7218C52.4889 70.2113 57.8165 82.1515 64.6857 86.8404V86.8398Z" fill="#FFE1B2"/>
<path fill-rule="evenodd" clip-rule="evenodd" d="M120.976 134.187C108.263 144.09 92.2992 149.999 74.9996 149.999C57.6896 149.999 41.7172 144.083 29.001 134.169C29.6848 130.594 30.327 126.746 30.8924 123.359C31.7299 118.341 32.3989 114.333 32.7851 113.713C35.7767 108.903 41.9568 107.196 47.7108 105.607C50.7461 104.769 53.6628 103.964 55.9303 102.753L55.9322 102.755C68.1068 141.811 83.3377 139.284 93.5565 102.21C95.768 103.398 98.8257 104.222 102.025 105.084C108.335 106.785 115.197 108.634 117.211 113.713C117.443 114.299 117.97 117.361 118.665 121.401C119.321 125.212 120.126 129.893 120.976 134.187ZM55.9311 102.753C55.9308 102.753 55.9305 102.753 55.9303 102.753L55.9299 102.753H55.9311ZM55.9311 102.753C55.9313 102.752 55.9315 102.752 55.9317 102.752V102.753H55.9311Z" fill="#304FFD"/>
<path d="M60.3109 99.0674C59.8844 110.602 61.8455 126.943 74.7877 131.119C62.6031 131.628 54.6965 114.072 45.6895 109.474L60.3106 99.0683V99.0674H60.3109Z" fill="white"/>
<path d="M89.9903 99.0674C90.4376 110.602 88.3789 126.943 74.7881 131.119C87.5829 131.628 95.886 114.072 105.342 109.474L89.9897 99.0683L89.9903 99.0674Z" fill="white"/>
</g>
<circle cx="137.5" cy="117.5" r="5.5" fill="#49C96D" stroke="white" stroke-width="2"/>
<defs>
<clipPath id="clip0">
<rect width="150" height="149.999" fill="white"/>
</clipPath>
</defs>
</svg>