<svg width="25" height="23" viewBox="0 0 25 23" fill="none" xmlns="http://www.w3.org/2000/svg">
<g clip-path="url(#clip0)">
<path d="M18.3832 1.76923H6.12787C4.77407 1.77069 3.47618 2.25742 2.5189 3.12266C1.56162 3.9879 1.02311 5.16098 1.02148 6.38461V13.7692C1.02297 14.8328 1.43009 15.8634 2.17422 16.6873C2.91835 17.5112 3.95399 18.0781 5.10659 18.2923V21.1538C5.10656 21.321 5.15673 21.4849 5.25174 21.6283C5.34675 21.7717 5.48304 21.889 5.64606 21.9679C5.80909 22.0467 5.99274 22.0841 6.17742 22.076C6.36209 22.0679 6.54087 22.0146 6.69468 21.9218L12.5619 18.3846H18.3832C19.737 18.3831 21.0349 17.8964 21.9922 17.0312C22.9494 16.1659 23.4879 14.9929 23.4896 13.7692V6.38461C23.4879 5.16098 22.9494 3.9879 21.9922 3.12266C21.0349 2.25742 19.737 1.77069 18.3832 1.76923ZM16.3406 12.8461H8.17042C7.89956 12.8461 7.6398 12.7489 7.44827 12.5758C7.25674 12.4027 7.14914 12.1679 7.14914 11.9231C7.14914 11.6783 7.25674 11.4435 7.44827 11.2704C7.6398 11.0972 7.89956 11 8.17042 11H16.3406C16.6115 11 16.8713 11.0972 17.0628 11.2704C17.2543 11.4435 17.3619 11.6783 17.3619 11.9231C17.3619 12.1679 17.2543 12.4027 17.0628 12.5758C16.8713 12.7489 16.6115 12.8461 16.3406 12.8461ZM18.3832 9.15384H6.12787C5.85701 9.15384 5.59724 9.05659 5.40572 8.88348C5.21419 8.71037 5.10659 8.47558 5.10659 8.23076C5.10659 7.98595 5.21419 7.75116 5.40572 7.57805C5.59724 7.40494 5.85701 7.30769 6.12787 7.30769H18.3832C18.654 7.30769 18.9138 7.40494 19.1053 7.57805C19.2969 7.75116 19.4045 7.98595 19.4045 8.23076C19.4045 8.47558 19.2969 8.71037 19.1053 8.88348C18.9138 9.05659 18.654 9.15384 18.3832 9.15384Z" fill="#717579"/>
</g>
<defs>
<clipPath id="clip0">
<rect width="24.5106" height="22.1538" fill="white" transform="translate(0 0.84613)"/>
</clipPath>
</defs>
</svg>
