<svg width="24" height="23" viewBox="0 0 24 23" fill="none" xmlns="http://www.w3.org/2000/svg">
<g clip-path="url(#clip0)">
<path d="M18.0003 8.69657C18.0004 7.911 17.8758 7.12968 17.6305 6.37762C17.2823 5.30784 16.6953 4.31762 15.9075 3.47104C15.1196 2.62446 14.1486 1.94037 13.057 1.46303C11.9655 0.985688 10.7778 0.725733 9.57087 0.699981C8.36392 0.67423 7.16458 0.883255 6.05043 1.31353C4.93628 1.74381 3.93215 2.38576 3.103 3.19784C2.27385 4.00993 1.63816 4.97405 1.23704 6.02785C0.83593 7.08164 0.678333 8.20163 0.774449 9.31535C0.870565 10.4291 1.21825 11.5117 1.79502 12.4932L0.778769 15.7943C0.746969 15.8976 0.741506 16.0063 0.762809 16.1119C0.784112 16.2175 0.831599 16.317 0.901535 16.4027C0.97147 16.4885 1.06194 16.558 1.16584 16.6058C1.26973 16.6537 1.38421 16.6786 1.50027 16.6786C1.56974 16.6784 1.63888 16.6696 1.70577 16.6522L5.27352 15.711C5.77972 15.9677 6.31365 16.1745 6.86652 16.3281C7.67903 16.5607 8.52475 16.6789 9.37527 16.6786C11.662 16.6762 13.8543 15.8345 15.4712 14.3381C17.0882 12.8417 17.9977 10.8128 18.0003 8.69657Z" fill="#717579"/>
<path d="M23.2215 20.6531L22.2053 17.352C23.2432 15.584 23.5201 13.5182 22.9803 11.5691C22.4406 9.6201 21.1241 7.93216 19.2953 6.84419C19.5957 8.20447 19.5651 9.6096 19.2056 10.9576C18.846 12.3055 18.1666 13.5624 17.2167 14.6371C16.2668 15.7117 15.0702 16.5771 13.7138 17.1704C12.3574 17.7636 10.8753 18.0699 9.375 18.0669C8.70653 18.065 8.03994 18.001 7.38525 17.876C8.16942 18.9939 9.24164 19.9138 10.5054 20.5529C11.7692 21.1921 13.1849 21.5303 14.625 21.5373C16.0583 21.5375 17.4689 21.2051 18.7275 20.5705L22.2945 21.511C22.3614 21.5283 22.4305 21.5372 22.5 21.5373C22.6161 21.5374 22.7305 21.5125 22.8344 21.4646C22.9383 21.4167 23.0288 21.3472 23.0987 21.2615C23.1687 21.1758 23.2162 21.0762 23.2375 20.9706C23.2588 20.8651 23.2533 20.7564 23.2215 20.6531Z" fill="#717579"/>
</g>
<defs>
<clipPath id="clip0">
<rect width="24" height="22.2108" fill="white" transform="translate(0 0.0205688)"/>
</clipPath>
</defs>
</svg>
