<svg width="24" height="23" viewBox="0 0 24 23" fill="none" xmlns="http://www.w3.org/2000/svg">
<path d="M8 2.18256H5C3.34315 2.18256 2 3.42557 2 4.95891V7.73526C2 9.26859 3.34315 10.5116 5 10.5116H8C9.65686 10.5116 11 9.26859 11 7.73526V4.95891C11 3.42557 9.65686 2.18256 8 2.18256Z" fill="#FF6175"/>
<path d="M19 2.18256H16C14.3431 2.18256 13 3.42557 13 4.95891V7.73526C13 9.26859 14.3431 10.5116 16 10.5116H19C20.6569 10.5116 22 9.26859 22 7.73526V4.95891C22 3.42557 20.6569 2.18256 19 2.18256Z" fill="#FF6175"/>
<path d="M8 12.3625H5C3.34315 12.3625 2 13.6055 2 15.1388V17.9152C2 19.4485 3.34315 20.6915 5 20.6915H8C9.65686 20.6915 11 19.4485 11 17.9152V15.1388C11 13.6055 9.65686 12.3625 8 12.3625Z" fill="#FF6175"/>
<path d="M19 12.3625H16C14.3431 12.3625 13 13.6055 13 15.1388V17.9152C13 19.4485 14.3431 20.6915 16 20.6915H19C20.6569 20.6915 22 19.4485 22 17.9152V15.1388C22 13.6055 20.6569 12.3625 19 12.3625Z" fill="#FF6175"/>
</svg>
