<svg width="25" height="23" viewBox="0 0 25 23" fill="none" xmlns="http://www.w3.org/2000/svg">
<path d="M19.9111 4.98463H18.9111V3.13373C18.9111 2.88829 18.8058 2.6529 18.6182 2.47934C18.4307 2.30578 18.1764 2.20828 17.9111 2.20828C17.6459 2.20828 17.3916 2.30578 17.204 2.47934C17.0165 2.6529 16.9111 2.88829 16.9111 3.13373V4.98463H8.91113V3.13373C8.91113 2.88829 8.80578 2.6529 8.61824 2.47934C8.4307 2.30578 8.17635 2.20828 7.91113 2.20828C7.64592 2.20828 7.39156 2.30578 7.20403 2.47934C7.01649 2.6529 6.91113 2.88829 6.91113 3.13373V4.98463H5.91113C5.11548 4.98463 4.35242 5.27714 3.78981 5.79781C3.2272 6.31847 2.91113 7.02465 2.91113 7.76098V8.68643H22.9111V7.76098C22.9111 7.02465 22.5951 6.31847 22.0325 5.79781C21.4698 5.27714 20.7068 4.98463 19.9111 4.98463Z" fill="#707579"/>
<path d="M2.91113 17.9409C2.91113 18.6773 3.2272 19.3834 3.78981 19.9041C4.35242 20.4248 5.11548 20.7173 5.91113 20.7173H19.9111C20.7068 20.7173 21.4698 20.4248 22.0325 19.9041C22.5951 19.3834 22.9111 18.6773 22.9111 17.9409V10.5373H2.91113V17.9409Z" fill="#707579"/>
</svg>
