<svg width="25" height="23" viewBox="0 0 25 23" fill="none" xmlns="http://www.w3.org/2000/svg">
<path d="M11.6838 5.55005L11.1834 4.19312C11.1131 4.01079 10.9821 3.85259 10.8084 3.74021C10.6347 3.62783 10.4268 3.56678 10.2132 3.56543H5.1068C4.29495 3.56757 3.51703 3.86002 2.94296 4.37889C2.3689 4.89775 2.04534 5.60088 2.04297 6.33466V8.18082H8.77318L11.6838 5.55005Z" fill="#717579"/>
<path d="M19.4047 6.33466H13.7059L9.91701 9.75927C9.7223 9.92934 9.46267 10.0252 9.19191 10.027H2.04297V17.4116C2.04534 18.1454 2.3689 18.8485 2.94296 19.3674C3.51703 19.8862 4.29495 20.1787 5.1068 20.1808H19.4047C20.2165 20.1787 20.9944 19.8862 21.5685 19.3674C22.1426 18.8485 22.4661 18.1454 22.4685 17.4116V9.10389C22.4661 8.3701 22.1426 7.66698 21.5685 7.14811C20.9944 6.62924 20.2165 6.3368 19.4047 6.33466Z" fill="#717579"/>
</svg>
