<svg xmlns="http://www.w3.org/2000/svg" width="500" height="500" style="width:100%;height:100%"><defs><clipPath id="a"><path d="M0 0h500v500H0z"/></clipPath></defs><g clip-path="url(#a)"><path stroke-linecap="round" stroke-linejoin="round" stroke="#121331" stroke-width="11.655000000000001" d="M415.391 271.815v-45.158h-30.03a138.321 138.321 0 00-6.96-26.108l26.008-15.018-22.581-39.107-25.984 15.001a140.04 140.04 0 00-9.13-10.08 140.136 140.136 0 00-9.974-9.037l15.015-26.01-39.111-22.578-15.002 25.987a138.115 138.115 0 00-26.104-6.986V82.668H226.38v30.03a138.354 138.354 0 00-26.11 6.96L185.255 93.65l-39.108 22.58 15.002 25.985a140.04 140.04 0 00-10.08 9.13 140.136 140.136 0 00-9.038 9.974l-26.01-15.015-22.578 39.107 25.988 15.005a138.048 138.048 0 00-6.987 26.104H82.391v45.158h30.03a138.321 138.321 0 006.96 26.107l-26.008 15.019 22.581 39.107 25.984-15.001a140.04 140.04 0 009.131 10.08 140.136 140.136 0 009.973 9.037l-15.015 26.008 39.108 22.58 15.005-25.987a138.048 138.048 0 0026.104 6.986v30.053h45.158v-30.03a138.254 138.254 0 0026.107-6.96l15.018 26.008 39.108-22.58-15.002-25.985a140.75 140.75 0 0010.08-9.13 140.136 140.136 0 009.038-9.974l26.007 15.015 22.58-39.107-25.986-15.005a138.048 138.048 0 006.986-26.104h30.053z" fill="none" display="block"/><path stroke-linecap="round" stroke-linejoin="round" stroke="#08A88A" stroke-width="11.655000000000001" d="M300.643 299.81c-27.969 27.969-73.317 27.969-101.286 0-27.968-27.969-27.968-73.316 0-101.285 27.969-27.969 73.317-27.969 101.286 0 27.968 27.969 27.968 73.316 0 101.285z" fill="none" display="block"/></g></svg>