<svg width="24" height="23" viewBox="0 0 24 23" fill="none" xmlns="http://www.w3.org/2000/svg">
<path d="M8.57189 11.6067C9.41967 11.6067 10.2484 11.374 10.9533 10.9381C11.6582 10.5022 12.2076 9.88269 12.5319 9.15783C12.8563 8.43296 12.9412 7.63536 12.7757 6.86587C12.6103 6.09638 12.202 5.38959 11.6025 4.83486C11.0029 4.28013 10.2391 3.90239 9.40764 3.74942C8.57614 3.59644 7.71429 3.67509 6.9311 3.97543C6.1479 4.27577 5.47853 4.7843 5.00764 5.43671C4.53675 6.08912 4.2855 6.85612 4.28564 7.64069C4.28684 8.69232 4.73883 9.70056 5.54242 10.4441C6.34601 11.1877 7.43554 11.6058 8.57189 11.6067Z" fill="#717579"/>
<path d="M14.1787 14.8835C13.0926 13.8525 11.699 13.1445 10.176 12.85C8.65303 12.5555 7.06973 12.6878 5.62839 13.2301C4.18705 13.7724 2.95309 14.7 2.08414 15.8944C1.21519 17.0888 0.750703 18.4958 0.75 19.9357C0.75 20.1198 0.829018 20.2964 0.96967 20.4265C1.11032 20.5567 1.30109 20.6298 1.5 20.6298H15.645C15.8439 20.6298 16.0347 20.5567 16.1753 20.4265C16.316 20.2964 16.395 20.1198 16.395 19.9357C16.3979 19.1997 16.2751 18.4679 16.0312 17.7674C15.6681 16.6844 15.0333 15.6962 14.1787 14.8835Z" fill="#717579"/>
<path d="M17.625 11.9537C19.3854 11.9537 20.8125 10.633 20.8125 9.00386C20.8125 7.37469 19.3854 6.05399 17.625 6.05399C15.8646 6.05399 14.4375 7.37469 14.4375 9.00386C14.4375 10.633 15.8646 11.9537 17.625 11.9537Z" fill="#717579"/>
<path d="M17.625 12.7658C16.6197 12.7693 15.6338 13.0227 14.7705 13.4995C14.9333 13.6341 15.0975 13.7667 15.2513 13.9124C16.2725 14.8839 17.0311 16.0649 17.4653 17.3593C17.6139 17.7854 17.7236 18.2224 17.793 18.6656H22.5C22.6989 18.6656 22.8897 18.5924 23.0303 18.4623C23.171 18.3321 23.25 18.1555 23.25 17.9715C23.2484 16.5913 22.6553 15.2681 21.6007 14.2921C20.5462 13.3162 19.1164 12.7673 17.625 12.7658Z" fill="#717579"/>
</svg>
