<svg width="24" height="21" viewBox="0 0 24 21" fill="none" xmlns="http://www.w3.org/2000/svg">
<path d="M23.6114 5.78617L12.3145 0.580519C12.1167 0.48903 11.8833 0.48903 11.6855 0.580519L0.388641 5.78617C0.150375 5.89675 0 6.12168 0 6.36825C0 6.61483 0.150375 6.83975 0.388641 6.95033L11.6855 12.156C11.7844 12.2018 11.8922 12.2246 12 12.2246C12.1078 12.2246 12.2156 12.2018 12.3145 12.156L23.6114 6.95033C23.8496 6.83975 24 6.61483 24 6.36825C24 6.12168 23.8496 5.89675 23.6114 5.78617Z" fill="#717579"/>
<path d="M22.5938 16.2487V8.8764L21.1875 9.52711V16.2487C20.3708 16.5183 19.7812 17.2338 19.7812 18.081V19.3824C19.7812 19.7421 20.0957 20.0331 20.4844 20.0331H23.2969C23.6855 20.0331 24 19.7421 24 19.3824V18.081C24 17.2338 23.4104 16.5183 22.5938 16.2487Z" fill="#717579"/>
<path d="M12.9435 13.3201C12.6523 13.4548 12.3262 13.526 12 13.526C11.6738 13.526 11.3477 13.4548 11.0565 13.3201L4.21875 10.1778V11.5739C4.21875 14.1278 7.66313 16.1289 12 16.1289C16.3369 16.1289 19.7813 14.1278 19.7813 11.5739V10.1778L12.9435 13.3201Z" fill="#717579"/>
</svg>
