<svg width="24" height="18" viewBox="0 0 24 18" fill="none" xmlns="http://www.w3.org/2000/svg">
<path d="M13.203 17.5312H2.04688C1.26157 17.5312 0.625 16.8946 0.625 16.1094C0.625 15.3241 1.26157 14.6875 2.04688 14.6875H13.2031C13.9883 14.6875 14.6249 15.3241 14.6249 16.1094C14.6249 16.8946 13.9883 17.5312 13.203 17.5312Z" fill="#717579"/>
<path d="M21.953 10.4218H2.04688C1.26157 10.4218 0.625 9.78527 0.625 9.00001C0.625 8.21474 1.26157 7.57812 2.04688 7.57812H21.9531C22.7383 7.57812 23.3749 8.21469 23.3749 9.00001C23.3749 9.78532 22.7383 10.4218 21.953 10.4218Z" fill="#717579"/>
<path d="M21.953 3.3125H2.04688C1.26157 3.3125 0.625 2.67594 0.625 1.89063C0.625 1.10532 1.26157 0.46875 2.04688 0.46875H21.9531C22.7383 0.46875 23.3749 1.10532 23.3749 1.89063C23.3749 2.67594 22.7383 3.3125 21.953 3.3125Z" fill="#717579"/>
</svg>
