<svg width="25" height="23" viewBox="0 0 25 23" fill="none" xmlns="http://www.w3.org/2000/svg">
<path d="M22.2963 16.0265L20.4253 13.4899V10.077C20.4253 8.11848 19.5645 6.24017 18.0323 4.85529C16.5001 3.4704 14.4219 2.69238 12.255 2.69238C10.0881 2.69238 8.00996 3.4704 6.47773 4.85529C4.9455 6.24017 4.0847 8.11848 4.0847 10.077V13.4899L2.2137 16.0265C2.11149 16.1656 2.05289 16.3271 2.04412 16.4939C2.03535 16.6606 2.07675 16.8264 2.16391 16.9736C2.25107 17.1208 2.38073 17.244 2.53912 17.3299C2.6975 17.4158 2.87869 17.4613 3.06341 17.4616H21.4466C21.6313 17.4613 21.8125 17.4158 21.9709 17.3299C22.1293 17.244 22.259 17.1208 22.3461 16.9736C22.4333 16.8264 22.4747 16.6606 22.4659 16.4939C22.4571 16.3271 22.3985 16.1656 22.2963 16.0265Z" fill="#717579"/>
<path d="M12.2561 21.1539C13.1616 21.1547 14.0416 20.8829 14.7573 20.3814C15.473 19.88 15.9835 19.1775 16.2085 18.3847H8.30371C8.52866 19.1775 9.03924 19.88 9.75491 20.3814C10.4706 20.8829 11.3506 21.1547 12.2561 21.1539Z" fill="#717579"/>
</svg>
